<svg xmlns="http://www.w3.org/2000/svg" viewBox="0 0 1200 675" role="img" aria-labelledby="title desc">
  <title id="title">Car image placeholder</title>
  <desc id="desc">Placeholder illustration shown when no car image is available.</desc>
  <defs>
    <linearGradient id="bg" x1="0%" y1="0%" x2="100%" y2="100%">
      <stop offset="0%" stop-color="#0a1a38" />
      <stop offset="100%" stop-color="#1b1141" />
    </linearGradient>
    <linearGradient id="car" x1="0%" y1="0%" x2="100%" y2="0%">
      <stop offset="0%" stop-color="#22d3ee" />
      <stop offset="100%" stop-color="#a855f7" />
    </linearGradient>
  </defs>
  <rect width="1200" height="675" fill="url(#bg)" />
  <circle cx="240" cy="170" r="120" fill="#22d3ee" opacity="0.1" />
  <circle cx="1000" cy="120" r="170" fill="#a855f7" opacity="0.12" />
  <circle cx="930" cy="560" r="160" fill="#00ffa3" opacity="0.1" />
  <path d="M260 440h720l-35 85h-650z" fill="#0b1227" opacity="0.7" />
  <path
    d="M245 435h710c30 0 55 24 55 54v28c0 20-16 36-36 36h-22c-4-58-52-103-110-103s-106 45-110 103h-266c-4-58-52-103-110-103s-106 45-110 103h-29c-20 0-36-16-36-36v-23c0-37 28-68 64-72l78-9 92-122c18-23 45-37 74-37h192c36 0 69 19 88 50l59 93z"
    fill="url(#car)"
  />
  <circle cx="356" cy="552" r="68" fill="#0f172a" />
  <circle cx="356" cy="552" r="35" fill="#94a3b8" />
  <circle cx="842" cy="552" r="68" fill="#0f172a" />
  <circle cx="842" cy="552" r="35" fill="#94a3b8" />
  <text x="600" y="130" text-anchor="middle" fill="#dbeafe" font-size="38" font-family="Inter, Arial, sans-serif" letter-spacing="2">
    EV VERDICT
  </text>
  <text x="600" y="182" text-anchor="middle" fill="#7dd3fc" font-size="26" font-family="Inter, Arial, sans-serif">
    Image not available
  </text>
</svg>
